:FULLY-SPECIFIED
:FORCE-ALL-JOINTS-BE-3DOF
:DEGREES
374
root 6.18064 16.4616 -15.8678 8.29735 -16.5856 -5.14564
lfemur -40.2335 22.3316 -10.6851
ltibia 74.3147 -0 0
lfoot -11.8379 -2.51672 -0.0440807
ltoes 13.1167 -0 0
rfemur -29.4954 -7.87061 30.1378
rtibia 47.2747 -0 0
rfoot -17.864 0.51319 -0.00513087
rtoes 18.5304 -0 0
lowerback 5.30742 1.31556 2.33654
upperback 2.65539 1.84933 0.895124
thorax -0.199751 0.936256 -0.502195
lowerneck -7.94076 -1.19797 2.82283
upperneck -0.556124 -1.91556 2.24467
head 1.17755 -0.910019 0.159638
lclavicle -2.17269e-14 -1.58737e-14 -5.50572e-32
lhumerus -41.5974 -22.2236 96.2214
lradius 57.4032 -0 0
lwrist 20.9405 0 0
lhand -19.9764 3.68328 0.00249852
lfingers 7.12502 -0 0
lthumb 6.36258 33.5675 0.00238153
rclavicle -2.17269e-14 -1.58737e-14 -5.50572e-32
rhumerus -37.9568 11.2032 -92.8777
rradius 64.041 -0 0
rwrist 7.47064 0 0
rhand -10.6732 -20.7717 -0.0387242
rfingers 7.12502 -0 0
rthumb 15.3337 -50.1557 -0.0325688
375
root 6.13297 16.4526 -15.7327 8.12844 -17.2256 -5.07814
lfemur -39.8749 21.9754 -10.637
ltibia 73.6042 -0 0
lfoot -11.9168 -2.08582 -0.0536201
ltoes 12.8385 -0 0
rfemur -29.9736 -8.32306 29.9572
rtibia 48.3346 -0 0
rfoot -17.2912 0.506304 -0.00624191
rtoes 18.9365 -0 0
lowerback 5.33656 1.40801 2.24893
upperback 2.63747 1.96774 0.806702
thorax -0.231453 0.995066 -0.553955
lowerneck -7.89716 -1.07823 2.95872
upperneck -0.436767 -1.76994 2.15539
head 1.21269 -0.835119 0.113754
lclavicle -2.16796e-14 -1.49719e-14 -6.69614e-32
lhumerus -41.7006 -22.0902 96.1716
lradius 57.2188 -0 0
lwrist 20.8678 0 0
lhand -20.0067 3.6195 0.00303878
lfingers 7.12502 -0 0
lthumb 6.3333 33.5045 0.0028965
rclavicle -2.16796e-14 -1.49719e-14 -6.69614e-32
rhumerus -38.1565 11.1579 -92.8249
rradius 64.0887 -0 0
rwrist 7.48487 0 0
rhand -10.9454 -20.6617 -0.0471002
rfingers 7.12502 -0 0
rthumb 15.0712 -50.0598 -0.0396132
376
root 6.0853 16.4436 -15.5976 7.95813 -17.8654 -5.00842
lfemur -39.5176 21.6189 -10.5915
ltibia 72.8937 -0 0
lfoot -11.9958 -1.65491 -0.0625659
ltoes 12.5602 -0 0
rfemur -30.451 -8.77698 29.7802
rtibia 49.3946 -0 0
rfoot -16.7184 0.499407 -0.00728405
rtoes 19.3426 -0 0
lowerback 5.36557 1.50049 2.16137
upperback 2.61937 2.08611 0.718237
thorax -0.263209 1.05385 -0.605749
lowerneck -7.85328 -0.958594 3.0947
upperneck -0.317646 -1.62413 2.06643
head 1.24776 -0.760189 0.0679162
lclavicle -2.16324e-14 -1.40701e-14 -7.81217e-32
lhumerus -41.8039 -21.9568 96.1215
lradius 57.0344 -0 0
lwrist 20.7951 0 0
lhand -20.0371 3.55572 0.00354529
lfingers 7.12502 -0 0
lthumb 6.30402 33.4415 0.00337928
rclavicle -2.16324e-14 -1.40701e-14 -7.81217e-32
rhumerus -38.3561 11.1128 -92.772
rradius 64.1363 -0 0
rwrist 7.49911 0 0
rhand -11.2176 -20.5517 -0.0549539
rfingers 7.12502 -0 0
rthumb 14.8087 -49.9639 -0.0462182
377
root 6.03763 16.4346 -15.4625 7.78638 -18.505 -4.93643
lfemur -39.1614 21.2621 -10.5484
ltibia 72.1832 -0 0
lfoot -12.0748 -1.22399 -0.0709177
ltoes 12.2819 -0 0
rfemur -30.9275 -9.23234 29.6069
rtibia 50.4545 -0 0
rfoot -16.1455 0.4925 -0.00825719
rtoes 19.7486 -0 0
lowerback 5.39443 1.59303 2.07384
upperback 2.60108 2.20446 0.629728
thorax -0.295019 1.1126 -0.657578
lowerneck -7.80911 -0.839063 3.23077
upperneck -0.19876 -1.47814 1.97778
head 1.28278 -0.68523 0.0221237
lclavicle -2.15851e-14 -1.31683e-14 -8.85379e-32
lhumerus -41.9072 -21.8235 96.0712
lradius 56.8501 -0 0
lwrist 20.7224 0 0
lhand -20.0674 3.49194 0.00401803
lfingers 7.12502 -0 0
lthumb 6.27473 33.3786 0.00382989
rclavicle -2.15851e-14 -1.31683e-14 -8.85379e-32
rhumerus -38.5558 11.0679 -92.719
rradius 64.1839 -0 0
rwrist 7.51335 0 0
rhand -11.4898 -20.4417 -0.0622849
rfingers 7.12502 -0 0
rthumb 14.5462 -49.8679 -0.0523835
378
root 5.98996 16.4256 -15.3274 7.61313 -19.1444 -4.86215
lfemur -38.8063 20.9051 -10.5079
ltibia 71.4726 -0 0
lfoot -12.1539 -0.793053 -0.078675
ltoes 12.0037 -0 0
rfemur -31.4032 -9.68911 29.4371
rtibia 51.5145 -0 0
rfoot -15.5727 0.485584 -0.00916123
rtoes 20.1547 -0 0
lowerback 5.42315 1.6856 1.98636
upperback 2.5826 2.32278 0.541173
thorax -0.326883 1.17133 -0.709441
lowerneck -7.76467 -0.719637 3.36693
upperneck -0.0801069 -1.33197 1.88943
head 1.31773 -0.610241 -0.0236231
lclavicle -2.15378e-14 -1.22665e-14 -9.82101e-32
lhumerus -42.0105 -21.6903 96.0207
lradius 56.6657 -0 0
lwrist 20.6496 0 0
lhand -20.0977 3.42816 0.00445702
lfingers 7.12502 -0 0
lthumb 6.24545 33.3156 0.00424832
rclavicle -2.15378e-14 -1.22665e-14 -9.82101e-32
rhumerus -38.7555 11.0232 -92.6658
rradius 64.2316 -0 0
rwrist 7.52759 0 0
rhand -11.762 -20.3316 -0.0690931
rfingers 7.12502 -0 0
rthumb 14.2836 -49.7719 -0.0581091
